<svg xmlns="http://www.w3.org/2000/svg" version="1.1" xmlns:xlink="http://www.w3.org/1999/xlink" xmlns:svgjs="http://svgjs.dev/svgjs" width="160" height="30" viewBox="0 0 2000 414"><g transform="matrix(1,0,0,1,-1.2120777196735162,-0.324982403137966)"><svg viewBox="0 0 396 82" data-background-color="#f9f9f9" preserveAspectRatio="xMidYMid meet" height="414" width="2000" xmlns="http://www.w3.org/2000/svg" xmlns:xlink="http://www.w3.org/1999/xlink"><g id="tight-bounds" transform="matrix(1,0,0,1,0.23999138849535484,0.06436849530751942)"><svg viewBox="0 0 395.52 81.87126300938496" height="81.87126300938496" width="395.52"><g><svg viewBox="0 0 524.7477033099735 108.62094769230772" height="81.87126300938496" width="395.52"><g transform="matrix(1,0,0,1,0,1.9125251282051394)"><svg viewBox="0 0 395.52 104.79589743589744" height="104.79589743589744" width="395.52"><g id="textblocktransform"><svg viewBox="0 0 395.52 104.79589743589744" height="104.79589743589744" width="395.52" id="textblock"><g><svg viewBox="0 0 395.52 104.79589743589744" height="104.79589743589744" width="395.52"><g transform="matrix(1,0,0,1,0,0)"><svg width="395.52" viewBox="1.5 -37.5 187.17999267578125 49.599998474121094" height="104.79589743589744" data-palette-color="#030303"><path d="M17.9 0.7Q12.85 0.7 9.15-1.63 5.45-3.95 3.48-8.08 1.5-12.2 1.5-17.5L1.5-17.5Q1.5-22.95 3.6-27.08 5.7-31.2 9.38-33.45 13.05-35.7 17.75-35.7L17.75-35.7Q22.05-35.7 25.55-34.2L25.55-34.2 25.05-29.95Q23.4-30.75 21.78-31.15 20.15-31.55 18.2-31.55L18.2-31.55Q14.5-31.55 11.88-29.7 9.25-27.85 7.9-24.65 6.55-21.45 6.55-17.5L6.55-17.5Q6.55-11.2 9.5-7.33 12.45-3.45 18.15-3.45L18.15-3.45Q20.35-3.45 22-4.15L22-4.15 22-13.4 17.55-13.4 17.55-17.55 26.55-17.55 26.55-1.6Q24.9-0.55 22.6 0.08 20.3 0.7 17.9 0.7L17.9 0.7ZM41.5 0.5Q37.8 0.5 35.17-1.23 32.55-2.95 31.22-5.9 29.9-8.85 29.9-12.45L29.9-12.45Q29.9-15.9 31.12-18.78 32.35-21.65 34.67-23.33 37-25 40.2-25L40.2-25Q44.3-25 46.87-22.25 49.45-19.5 49.45-14.65L49.45-14.65Q49.45-13.8 49.25-12.3L49.25-12.3 34.35-12.3Q34.5-7.95 36.52-5.7 38.55-3.45 41.8-3.45L41.8-3.45Q43.35-3.45 45.07-3.83 46.8-4.2 48.1-4.9L48.1-4.9 48.5-1Q45.75 0.5 41.5 0.5L41.5 0.5ZM34.55-15.35L45-15.35Q45-17.85 43.77-19.43 42.55-21 40.25-21L40.25-21Q38-21 36.52-19.6 35.05-18.2 34.55-15.35L34.55-15.35ZM63.75-25Q67.55-25 69.57-22.03 71.59-19.05 71.59-14L71.59-14 71.59 0 67.25 0 67.25-13.45Q67.25-17.35 66.12-19.23 65-21.1 62.75-21.1L62.75-21.1Q61.1-21.1 59.7-20.18 58.3-19.25 57.35-17.6L57.35-17.6 57.35 0 53 0 53-24.5 56.7-24.5 57-21.45Q58.05-23.1 59.82-24.05 61.6-25 63.75-25L63.75-25ZM95.34 0L92.54-9.5 81.69-9.5 78.89 0 73.99 0 84.74-35 89.44-35 100.19 0 95.34 0ZM82.94-13.75L91.29-13.75 87.09-27.95 82.94-13.75ZM104.29 0L104.29-35 108.89-35 108.89 0 104.29 0ZM115.04 0L115.04-24.5 118.59-24.5 119.14-20.4Q120.79-22.8 122.26-23.9 123.74-25 125.39-25L125.39-25Q126.04-25 126.54-24.85L126.54-24.85 126.09-19.9Q125.44-20.05 124.59-20.05L124.59-20.05Q122.94-20.05 121.49-19.23 120.04-18.4 119.39-17.3L119.39-17.3 119.39 0 115.04 0ZM136.78 0.5Q133.94 0.5 132.56-1.2 131.19-2.9 131.19-5.35L131.19-5.35 131.19-21.05 127.78-21.05 128.19-24.5 131.19-24.5 131.19-30.55 135.53-31 135.53-24.5 140.84-24.5 140.84-21.05 135.53-21.05 135.53-7.1Q135.53-4.85 136.36-3.95 137.19-3.05 139.24-3.05L139.24-3.05 140.78-3.05 140.38 0.5 136.78 0.5ZM144.73-30.05L144.73-35 149.08-35 149.08-30.05 144.73-30.05ZM144.73 0L144.73-24.5 149.08-24.5 149.08 0 144.73 0ZM156.13 0L156.13-21.05 152.73-21.05 153.23-24.5 156.13-24.5 156.13-31.05Q156.13-33.95 157.78-35.73 159.43-37.5 162.48-37.5L162.48-37.5Q164.33-37.5 165.73-36.95L165.73-36.95 165.18-33.2Q164.13-33.55 163.18-33.55L163.18-33.55Q161.88-33.55 161.18-32.73 160.48-31.9 160.48-30.4L160.48-30.4 160.48-24.5 165.88-24.5 165.88-21.05 160.48-21.05 160.48 0 156.13 0ZM170.88 12.1L175.78-1.1 166.83-24.5 171.48-24.5 178.03-6.25 184.03-24.5 188.68-24.5 175.53 12.1 170.88 12.1Z" opacity="1" transform="matrix(1,0,0,1,0,0)" fill="#000000" class="wordmark-text-0" data-fill-palette-color="primary" id="text-0"></path></svg></g></svg></g></svg></g></svg></g><g transform="matrix(1,0,0,1,420.2597962830769,0)"><svg viewBox="0 0 104.48790702689655 108.62094769230772" height="108.62094769230772" width="104.48790702689655"><g><svg xmlns="http://www.w3.org/2000/svg" xmlns:xlink="http://www.w3.org/1999/xlink" version="1.1" x="0" y="0" viewBox="18.322998046875 17.068994522094727 63.35498809814453 65.86100769042969" enable-background="new 0 0 100 100" xml:space="preserve" height="108.62094769230772" width="104.48790702689655" class="icon-icon-0" data-fill-palette-color="accent" id="icon-0"><g fill="#030303" data-fill-palette-color="accent"><path d="M41.086 21.513c0.172-0.39 0.271-0.819 0.271-1.273 0-1.748-1.422-3.17-3.17-3.17s-3.17 1.422-3.17 3.17 1.422 3.17 3.17 3.17c0.375 0 0.73-0.077 1.064-0.197l24.309 26.045-13.675 27.35c-0.06-0.003-0.117-0.018-0.178-0.018-1.748 0-3.17 1.422-3.17 3.17s1.422 3.17 3.17 3.17c1.748 0 3.17-1.422 3.17-3.17 0-0.777-0.292-1.479-0.757-2.031l14.064-28.13c0.233-0.467 0.152-1.03-0.204-1.412L41.086 21.513z" fill="#000000" data-fill-palette-color="accent"></path><path d="M58.506 49.599c0.24-0.481 0.146-1.062-0.234-1.442L31.527 21.412c0.146-0.363 0.23-0.757 0.23-1.172 0-1.748-1.422-3.17-3.17-3.17s-3.17 1.422-3.17 3.17 1.422 3.17 3.17 3.17c0.415 0 0.808-0.085 1.171-0.23l14.67 14.67c-0.029 0.024-0.065 0.034-0.092 0.061L31.114 51.134l-6.682-6.682c0.145-0.363 0.23-0.757 0.23-1.172 0-1.748-1.422-3.17-3.169-3.17-1.748 0-3.17 1.422-3.17 3.17 0 1.748 1.422 3.17 3.17 3.17 0.414 0 0.808-0.085 1.171-0.23l6.683 6.682-7.089 7.089c-0.088 0.088-0.142 0.193-0.198 0.297-0.287 0.229-0.482 0.566-0.482 0.962v6.018c-0.365 0.149-0.705 0.363-0.992 0.65-1.235 1.236-1.235 3.247 0 4.483 0.599 0.599 1.395 0.929 2.242 0.929s1.643-0.33 2.241-0.929c0.599-0.599 0.929-1.395 0.929-2.241s-0.33-1.643-0.929-2.242c-0.287-0.287-0.626-0.501-0.991-0.65v-5.562l22.028-22.028c0.027-0.027 0.037-0.063 0.061-0.092L48.9 42.32 27.704 63.516c-0.008 0.008-0.01 0.019-0.018 0.027-0.104 0.11-0.192 0.236-0.251 0.379-0.063 0.153-0.097 0.315-0.097 0.479v10.548c-0.365 0.149-0.705 0.363-0.992 0.65-1.236 1.235-1.236 3.247 0 4.483 0.599 0.599 1.395 0.928 2.242 0.928 0.847 0 1.643-0.329 2.241-0.928 1.236-1.236 1.236-3.247 0-4.483-0.287-0.287-0.626-0.501-0.991-0.65V64.917l20.83-20.83 5.199 5.199L42.206 76.608c-0.061-0.003-0.118-0.018-0.179-0.018-1.748 0-3.17 1.422-3.17 3.17s1.422 3.17 3.17 3.17c1.748 0 3.17-1.422 3.17-3.17 0-0.777-0.292-1.479-0.757-2.031L58.506 49.599z" fill="#000000" data-fill-palette-color="accent"></path><path d="M78.508 74.67c-0.257 0-0.503 0.039-0.742 0.097l-3.768-5.023V49.04c0-0.313-0.118-0.614-0.329-0.845l-8.208-8.954 6.114-6.114c0.363 0.146 0.757 0.231 1.172 0.231 1.748 0 3.169-1.422 3.169-3.17 0-1.748-1.422-3.17-3.169-3.17-1.748 0-3.17 1.422-3.17 3.17 0 0.415 0.085 0.808 0.23 1.171l-6.038 6.037-3.066-3.345 10.872-10.872c0.363 0.145 0.757 0.23 1.172 0.23 1.748 0 3.169-1.422 3.169-3.17s-1.422-3.17-3.169-3.17c-1.748 0-3.17 1.422-3.17 3.17 0 0.415 0.085 0.809 0.23 1.172L59.013 32.207l-6.135-6.693V23.15c1.127-0.486 1.92-1.607 1.92-2.911 0-1.748-1.422-3.17-3.17-3.17-1.748 0-3.17 1.422-3.17 3.17 0 1.304 0.792 2.425 1.92 2.911V26c0 0.061 0.026 0.114 0.035 0.172 0.014 0.095 0.021 0.189 0.057 0.279 0.033 0.086 0.088 0.156 0.139 0.231 0.035 0.053 0.053 0.114 0.098 0.162l20.792 22.682V70.16c0 0.271 0.087 0.534 0.25 0.75l4.021 5.362c-0.267 0.464-0.432 0.995-0.432 1.568 0 1.748 1.422 3.17 3.17 3.17 1.748 0 3.17-1.422 3.17-3.17S80.255 74.67 78.508 74.67z" fill="#000000" data-fill-palette-color="accent"></path></g></svg></g></svg></g></svg></g><defs></defs></svg><rect width="395.52" height="81.87126300938496" fill="none" stroke="none" visibility="hidden"></rect></g></svg></g></svg>